<svg width="200" height="200" viewBox="0 0 200 200" fill="none" xmlns="http://www.w3.org/2000/svg">
<g filter="url(#filter0_ii_1495_4124)">
<path d="M176.091 113.5C169.167 128.3 163.013 141.407 152.946 151.5C146.877 157.585 138.671 163.175 132.756 167.5C120.505 176.456 106.672 179.708 101.495 180.87C100.753 181.04 99.9777 181.043 99.2338 180.88C94.277 179.817 79.5338 175.941 65.7833 165.611C57.2414 159.194 47.4639 152.839 39.1914 142.5C33.0543 134.83 29.0612 126.955 24.4179 117C14.7407 96.2467 18.9831 68.6177 18.618 52.7906C18.5091 48.4263 21.5495 44.2696 26.1756 42.4469C27.0394 42.1073 38.9758 38.5479 51.5024 34C59.091 31.2449 65.6494 27.893 73.6624 25.3443C84.963 21.7499 95.2392 19.0176 100.411 19C106.795 19.0192 117.101 21.6731 132.756 27C138.165 28.8408 147.624 34.0526 152.946 36C160.655 38.8212 168.443 40.0219 174.39 42.3709C178.482 43.986 181.996 48.7959 181.909 52.659C181.66 63.0564 182.752 76.5997 180.854 90.5C179.843 97.9077 179.455 106.312 176.091 113.5Z" fill="#878787"/>
</g>
<path d="M172.468 111.805L172.468 111.804C174.886 106.639 175.572 100.85 176.303 94.6817C176.486 93.1302 176.673 91.5546 176.891 89.959C178.174 80.562 178.048 71.5729 177.931 63.2959C177.879 59.5643 177.829 55.9775 177.91 52.5633C177.926 51.7877 177.537 50.4685 176.487 49.0321C175.461 47.6275 174.129 46.5682 172.921 46.0916L172.92 46.0912C170.221 45.0249 167.044 44.1978 163.326 43.2347L163.3 43.2282C159.676 42.2895 155.627 41.2407 151.571 39.7564C148.866 38.7664 145.262 37.0375 141.847 35.3993C141.616 35.288 141.385 35.1772 141.155 35.0671C137.374 33.2548 133.897 31.6136 131.467 30.7868C115.733 25.4327 106.039 23.0207 100.412 23C98.3374 23.0093 94.8788 23.5902 90.2874 24.7158C85.7811 25.8205 80.4814 27.3729 74.8748 29.1561C71.0445 30.3745 67.536 31.7926 63.9662 33.2852C63.4142 33.516 62.8591 33.7493 62.3006 33.984C59.2843 35.2517 56.166 36.5623 52.8674 37.7599C46.5407 40.0568 40.3744 42.1002 35.6921 43.6088C33.3593 44.3604 31.3905 44.9807 29.9554 45.4329L29.9378 45.4385C29.2161 45.6658 28.6401 45.8473 28.217 45.9827C27.9301 46.0745 27.7669 46.1285 27.6889 46.1542C27.6371 46.1713 27.623 46.176 27.6351 46.1711C24.2894 47.4922 22.557 50.2959 22.6168 52.6908L22.617 52.6984C22.7051 56.5201 22.5347 60.9761 22.3551 65.6718C22.3416 66.0245 22.328 66.3785 22.3146 66.7337C22.1193 71.8749 21.9301 77.3619 22.0254 82.9801C22.2168 94.2708 23.5602 105.695 28.0429 115.309L172.468 111.805ZM172.468 111.805C165.48 126.742 159.598 139.166 150.114 148.675C145.262 153.539 138.968 158.079 133.465 162.047C132.407 162.81 131.379 163.552 130.395 164.271C118.852 172.71 105.715 175.824 100.619 176.967L100.611 176.969M172.468 111.805L100.611 176.969M100.611 176.969L100.603 176.971M100.611 176.969L100.603 176.971M100.603 176.971C100.436 177.009 100.258 177.01 100.091 176.973L100.082 176.971M100.603 176.971L100.082 176.971M100.082 176.971L100.072 176.969M100.082 176.971L100.072 176.969M100.072 176.969C95.3878 175.965 81.2807 172.251 68.1858 162.413M100.072 176.969L68.1858 162.413M68.1858 162.413C66.759 161.341 65.3211 160.286 63.8797 159.228M68.1858 162.413L63.8797 159.228M63.8797 159.228C56.44 153.768 48.9064 148.239 42.3146 140.001M63.8797 159.228L42.3146 140.001M42.3146 140.001C36.4957 132.729 32.6683 125.225 28.0431 115.31L42.3146 140.001Z" stroke="black" stroke-width="8"/>
<mask id="path-3-outside-1_1495_4124" maskUnits="userSpaceOnUse" x="50" y="48.6298" width="100" height="104" fill="black">
<rect fill="white" x="50" y="48.6298" width="100" height="104"/>
<path fill-rule="evenodd" clip-rule="evenodd" d="M105.066 55.6573C101.828 54.2872 98.1725 54.2872 94.9343 55.6573L63.9343 68.7739C59.1249 70.8088 56 75.5241 56 80.7463V99.9933C56 120.416 70.4936 135.746 98.4468 145.797C99.4292 146.152 100.503 146.161 101.492 145.823C129.48 136.227 144 120.868 144 99.9891V80.7463C144 75.5241 140.875 70.8088 136.066 68.7739L105.066 55.6573Z"/>
</mask>
<path fill-rule="evenodd" clip-rule="evenodd" d="M105.066 55.6573C101.828 54.2872 98.1725 54.2872 94.9343 55.6573L63.9343 68.7739C59.1249 70.8088 56 75.5241 56 80.7463V99.9933C56 120.416 70.4936 135.746 98.4468 145.797C99.4292 146.152 100.503 146.161 101.492 145.823C129.48 136.227 144 120.868 144 99.9891V80.7463C144 75.5241 140.875 70.8088 136.066 68.7739L105.066 55.6573Z" fill="#F4BA4E"/>
<path d="M94.9343 55.6573L97.2723 61.1831V61.1831L94.9343 55.6573ZM105.066 55.6573L102.728 61.1831L105.066 55.6573ZM63.9343 68.7739L61.5963 63.2482L63.9343 68.7739ZM98.4468 145.797L100.486 140.155L100.477 140.151L98.4468 145.797ZM101.492 145.823L103.437 151.499L103.437 151.498L101.492 145.823ZM136.066 68.7739L138.404 63.2482V63.2482L136.066 68.7739ZM97.2723 61.1831C99.016 60.4453 100.984 60.4453 102.728 61.1831L107.404 50.1316C102.671 48.1291 97.329 48.1291 92.5963 50.1316L97.2723 61.1831ZM66.2723 74.2996L97.2723 61.1831L92.5963 50.1316L61.5963 63.2482L66.2723 74.2996ZM62 80.7463C62 77.9344 63.6826 75.3954 66.2723 74.2996L61.5963 63.2482C54.5672 66.2223 50 73.1139 50 80.7463H62ZM62 99.9933V80.7463H50V99.9933H62ZM100.477 140.151C73.525 130.46 62 116.679 62 99.9933H50C50 124.153 67.4622 141.032 96.4167 151.444L100.477 140.151ZM99.5465 140.147C99.8516 140.042 100.183 140.045 100.486 140.155L96.4077 151.44C98.6755 152.26 101.155 152.281 103.437 151.499L99.5465 140.147ZM138 99.9891C138 108.883 134.964 116.488 128.852 123.047C122.62 129.734 112.979 135.542 99.5458 140.147L103.437 151.498C117.993 146.508 129.606 139.839 137.631 131.228C145.776 122.488 150 111.974 150 99.9891H138ZM138 80.7463V99.9891H150V80.7463H138ZM133.728 74.2996C136.317 75.3954 138 77.9344 138 80.7463H150C150 73.1139 145.433 66.2223 138.404 63.2482L133.728 74.2996ZM102.728 61.1831L133.728 74.2996L138.404 63.2482L107.404 50.1316L102.728 61.1831Z" fill="black" mask="url(#path-3-outside-1_1495_4124)"/>
<g filter="url(#filter1_i_1495_4124)">
<path d="M97.0871 83.8064C97.4617 83.2507 97.9692 82.7951 98.5646 82.48C99.16 82.1649 99.8248 82 100.5 82C101.175 82 101.84 82.1649 102.435 82.48C103.031 82.7951 103.538 83.2507 103.913 83.8064L113.311 97.7496C113.76 98.416 114 99.1991 114 100C114 100.801 113.76 101.584 113.311 102.25L103.913 116.194C103.538 116.749 103.031 117.205 102.435 117.52C101.84 117.835 101.175 118 100.5 118C99.8248 118 99.16 117.835 98.5646 117.52C97.9692 117.205 97.4617 116.749 97.0871 116.194L87.6888 102.25C87.2397 101.584 87 100.801 87 100C87 99.1991 87.2397 98.416 87.6888 97.7496L97.0871 83.8064Z" fill="#FAE45B"/>
</g>
<path d="M95.0142 82.4089L95.0141 82.409L85.6158 96.3523L85.6157 96.3524C84.8893 97.4302 84.5 98.6994 84.5 100C84.5 101.301 84.8893 102.57 85.6157 103.648L85.6158 103.648L95.0141 117.591L95.0142 117.591C95.6199 118.49 96.4384 119.223 97.3951 119.73C98.3517 120.236 99.4181 120.5 100.5 120.5C101.582 120.5 102.648 120.236 103.605 119.73C104.562 119.223 105.38 118.49 105.986 117.591L105.986 117.591L115.384 103.648L115.384 103.648C116.111 102.57 116.5 101.301 116.5 100C116.5 98.6994 116.111 97.4302 115.384 96.3524L115.384 96.3523L105.986 82.409L105.986 82.4089C105.38 81.5105 104.562 80.7768 103.605 80.2704C102.648 79.7641 101.582 79.5 100.5 79.5C99.4181 79.5 98.3517 79.7641 97.3951 80.2704C96.4384 80.7768 95.6198 81.5105 95.0142 82.4089Z" stroke="black" stroke-width="5"/>
<path d="M92.0964 100.222C91.8283 100.236 91.5615 100.177 91.3262 100.05C91.0909 99.9229 90.8964 99.7338 90.7646 99.5038C90.6328 99.2738 90.5689 99.012 90.5802 98.748C90.5915 98.4839 90.6775 98.2281 90.8285 98.0093L98.788 86.489C99.136 85.9853 99.7716 85.7558 100.367 85.9186C100.657 85.9978 100.915 86.1648 101.104 86.3961C101.293 86.6273 101.403 86.9112 101.419 87.2076L102.019 98.2627C102.029 98.4489 102.002 98.6353 101.939 98.8113C101.877 98.9873 101.779 99.1494 101.652 99.2883C101.526 99.4272 101.373 99.5402 101.201 99.6207C101.03 99.7013 100.845 99.7478 100.656 99.7576L92.0964 100.222Z" fill="#FFF3C9"/>
<path d="M89.4963 107.882C89.9759 107.211 90.3164 106.439 90.8537 105.812C91.9855 104.492 93.21 103.262 94.4015 102" stroke="black" stroke-width="5" stroke-linecap="round"/>
<path d="M78 166.725C78.2697 166.396 78.3266 165.922 78.4748 165.533C79.0426 164.044 79.9083 162.682 80.7138 161.314" stroke="black" stroke-width="6" stroke-linecap="round"/>
<path d="M66.655 75.6077C66.4572 75.2306 66.0433 74.9927 65.7438 74.7043C64.5958 73.5993 63.6812 72.2698 62.7368 70.993" stroke="black" stroke-width="6" stroke-linecap="round"/>
<path d="M78.6118 72.7417C78.1549 72.1595 77.4268 71.673 76.8517 71.1666C74.6481 69.2261 72.7069 67.0843 70.7421 65" stroke="black" stroke-width="6" stroke-linecap="round"/>
<path d="M57.9945 148.882C60.3687 146.435 62.9054 144.236 65.4798 142" stroke="black" stroke-width="6" stroke-linecap="round"/>
<path d="M163.906 47.7399C163.569 47.9997 163.406 48.4483 163.173 48.793C162.282 50.114 161.13 51.2437 160.035 52.3937" stroke="black" stroke-width="6" stroke-linecap="round"/>
<path d="M150.76 41C149.905 44.3004 148.786 47.4652 147.653 50.6815" stroke="black" stroke-width="6" stroke-linecap="round"/>
<defs>
<filter id="filter0_ii_1495_4124" x="18" y="19" width="164" height="162" filterUnits="userSpaceOnUse" color-interpolation-filters="sRGB">
<feFlood flood-opacity="0" result="BackgroundImageFix"/>
<feBlend mode="normal" in="SourceGraphic" in2="BackgroundImageFix" result="shape"/>
<feColorMatrix in="SourceAlpha" type="matrix" values="0 0 0 0 0 0 0 0 0 0 0 0 0 0 0 0 0 0 127 0" result="hardAlpha"/>
<feOffset dx="-12" dy="-15"/>
<feComposite in2="hardAlpha" operator="arithmetic" k2="-1" k3="1"/>
<feColorMatrix type="matrix" values="0 0 0 0 0.760784 0 0 0 0 0.760784 0 0 0 0 0.764706 0 0 0 1 0"/>
<feBlend mode="normal" in2="shape" result="effect1_innerShadow_1495_4124"/>
<feColorMatrix in="SourceAlpha" type="matrix" values="0 0 0 0 0 0 0 0 0 0 0 0 0 0 0 0 0 0 127 0" result="hardAlpha"/>
<feOffset dx="15" dy="13"/>
<feComposite in2="hardAlpha" operator="arithmetic" k2="-1" k3="1"/>
<feColorMatrix type="matrix" values="0 0 0 0 0.760784 0 0 0 0 0.760784 0 0 0 0 0.764706 0 0 0 1 0"/>
<feBlend mode="normal" in2="effect1_innerShadow_1495_4124" result="effect2_innerShadow_1495_4124"/>
</filter>
<filter id="filter1_i_1495_4124" x="82" y="77" width="37" height="46" filterUnits="userSpaceOnUse" color-interpolation-filters="sRGB">
<feFlood flood-opacity="0" result="BackgroundImageFix"/>
<feBlend mode="normal" in="SourceGraphic" in2="BackgroundImageFix" result="shape"/>
<feColorMatrix in="SourceAlpha" type="matrix" values="0 0 0 0 0 0 0 0 0 0 0 0 0 0 0 0 0 0 127 0" result="hardAlpha"/>
<feOffset dx="-9" dy="-1"/>
<feComposite in2="hardAlpha" operator="arithmetic" k2="-1" k3="1"/>
<feColorMatrix type="matrix" values="0 0 0 0 1 0 0 0 0 0.952941 0 0 0 0 0.788235 0 0 0 1 0"/>
<feBlend mode="normal" in2="shape" result="effect1_innerShadow_1495_4124"/>
</filter>
</defs>
</svg>
