<svg width="200" height="200" viewBox="0 0 200 200" fill="none" xmlns="http://www.w3.org/2000/svg">
<g filter="url(#filter0_ii_1495_4490)">
<path d="M73.8548 58.6464C86.7974 52.2013 102.371 54.3779 113.05 64.1246L129.159 78.8257C140.247 88.9457 143.647 105.01 137.609 118.755L127.482 141.808C124.763 147.997 120.78 153.55 115.789 158.109L113.339 160.347C94.5699 177.492 65.7476 177.236 47.2863 159.761L37.8444 150.823C19.383 133.347 17.5476 104.583 33.6381 84.9022L35.6303 82.4656C39.9791 77.1466 45.4083 72.8122 51.5584 69.7496L73.8548 58.6464Z" fill="#878787"/>
</g>
<path d="M115.747 61.1701C103.847 50.3095 86.4935 47.8841 72.0717 55.0658L49.7753 66.169C43.118 69.4842 37.241 74.176 32.5336 79.9337L30.5413 82.3704C13.1238 103.674 15.1106 134.811 35.0946 153.728L44.5365 162.666C64.5204 181.583 95.7198 181.86 116.036 163.301L118.486 161.063C123.889 156.127 128.201 150.116 131.144 143.416L141.271 120.364C147.999 105.048 144.211 87.1478 131.855 75.8711L115.747 61.1701Z" stroke="black" stroke-width="8"/>
<path d="M50.2373 144.826C27.6185 122.606 23.6521 101.652 23.0843 97.6751C23.0211 97.2321 23.1322 96.7958 23.3753 96.4202L31.4463 83.9523C32.4015 82.4767 34.7691 82.8289 35.338 84.4921C38.1931 92.8386 46.067 111.635 63.6975 129.794C81.8531 148.494 103.029 158.074 111.833 161.499C113.44 162.125 113.673 164.41 112.198 165.304L100.113 172.629C99.7166 172.869 99.2591 172.965 98.804 172.879C94.6811 172.096 72.8698 167.06 50.2373 144.826Z" fill="white" stroke="black" stroke-width="5" stroke-linecap="round"/>
<g filter="url(#filter1_i_1495_4490)">
<path d="M93.1482 31.1623C107.178 16.3409 130.262 14.8426 146.091 27.726L157.385 36.9193C158.607 37.9134 159.751 38.9992 160.807 40.1671L169.38 49.6461C183.043 64.7514 182.781 87.8264 168.779 102.618L166.075 105.474C151.268 121.117 126.584 121.794 110.942 106.987L92.025 89.0801C76.3827 74.273 75.7056 49.5888 90.5127 33.9465L93.1482 31.1623Z" fill="#D9D9D9"/>
</g>
<path d="M96.0531 33.9121C108.644 20.6109 129.361 19.2663 143.566 30.8283L154.86 40.0216C155.924 40.8874 156.92 41.8331 157.84 42.8503L166.414 52.3293C178.675 65.8853 178.44 86.5936 165.874 99.868L163.17 102.725C149.882 116.763 127.729 117.37 113.691 104.082L94.7748 86.1752C80.7368 72.8868 80.1292 50.7343 93.4176 36.6963L96.0531 33.9121Z" stroke="black" stroke-width="8"/>
<g filter="url(#filter2_i_1495_4490)">
<path d="M161.5 84.5C154.633 91.7545 139.026 83.2783 125.37 70.3519C111.715 57.4256 103.633 42.2545 110.5 35C117.367 27.7455 135.215 33.4257 148.87 46.3521C162.526 59.2784 168.367 77.2455 161.5 84.5Z" fill="#878787"/>
</g>
<path d="M159.684 82.7814C157.435 85.1572 153.291 85.4618 146.982 82.7032C140.88 80.0349 133.805 74.8939 127.089 68.5363C120.403 62.2078 115.207 55.4392 112.515 49.515C109.755 43.4382 109.985 39.181 112.316 36.7186C114.726 34.1725 119.621 33.4425 126.414 35.5008C133.015 37.5004 140.56 41.9284 147.151 48.1676C153.711 54.3774 158.341 61.7554 160.506 68.3347C162.732 75.0951 162.138 80.189 159.684 82.7814Z" stroke="black" stroke-width="5"/>
<path d="M56.8203 170.964C56.8945 170.545 57.2168 170.193 57.4148 169.827C58.1737 168.426 58.6421 166.882 59.155 165.379" stroke="black" stroke-width="6" stroke-linecap="round"/>
<path d="M59.4888 93.7814C59.7618 93.4545 60.2166 93.3094 60.5703 93.0908C61.9257 92.253 63.1004 91.1466 64.2931 90.098" stroke="black" stroke-width="6" stroke-linecap="round"/>
<path d="M95.4829 87.7178C95.9047 87.1277 96.5988 86.6243 97.1409 86.1058C99.2182 84.1189 101.027 81.9401 102.861 79.8177" stroke="black" stroke-width="6" stroke-linecap="round"/>
<path d="M152.915 87C153.424 88.6644 153.902 91.5104 153.283 93.798" stroke="black" stroke-width="6" stroke-linecap="round"/>
<path d="M145.222 85C144.855 86.4856 144.535 87.6539 144 89" stroke="black" stroke-width="6" stroke-linecap="round"/>
<path d="M43 161.586C46.111 159.314 48.8335 156.772 51.6037 154.193" stroke="black" stroke-width="6" stroke-linecap="round"/>
<defs>
<filter id="filter0_ii_1495_4490" x="14.6853" y="46.9759" width="133.881" height="134.063" filterUnits="userSpaceOnUse" color-interpolation-filters="sRGB">
<feFlood flood-opacity="0" result="BackgroundImageFix"/>
<feBlend mode="normal" in="SourceGraphic" in2="BackgroundImageFix" result="shape"/>
<feColorMatrix in="SourceAlpha" type="matrix" values="0 0 0 0 0 0 0 0 0 0 0 0 0 0 0 0 0 0 127 0" result="hardAlpha"/>
<feOffset dx="-11" dy="-16"/>
<feComposite in2="hardAlpha" operator="arithmetic" k2="-1" k3="1"/>
<feColorMatrix type="matrix" values="0 0 0 0 0.760784 0 0 0 0 0.764706 0 0 0 0 0.764706 0 0 0 1 0"/>
<feBlend mode="normal" in2="shape" result="effect1_innerShadow_1495_4490"/>
<feColorMatrix in="SourceAlpha" type="matrix" values="0 0 0 0 0 0 0 0 0 0 0 0 0 0 0 0 0 0 127 0" result="hardAlpha"/>
<feOffset dx="11" dy="14"/>
<feComposite in2="hardAlpha" operator="arithmetic" k2="-1" k3="1"/>
<feColorMatrix type="matrix" values="0 0 0 0 0.760784 0 0 0 0 0.764706 0 0 0 0 0.764706 0 0 0 1 0"/>
<feBlend mode="normal" in2="effect1_innerShadow_1495_4490" result="effect2_innerShadow_1495_4490"/>
</filter>
<filter id="filter1_i_1495_4490" x="79.8354" y="18.9726" width="99.6211" height="98.6912" filterUnits="userSpaceOnUse" color-interpolation-filters="sRGB">
<feFlood flood-opacity="0" result="BackgroundImageFix"/>
<feBlend mode="normal" in="SourceGraphic" in2="BackgroundImageFix" result="shape"/>
<feColorMatrix in="SourceAlpha" type="matrix" values="0 0 0 0 0 0 0 0 0 0 0 0 0 0 0 0 0 0 127 0" result="hardAlpha"/>
<feOffset dx="15" dy="-20"/>
<feComposite in2="hardAlpha" operator="arithmetic" k2="-1" k3="1"/>
<feColorMatrix type="matrix" values="0 0 0 0 0 0 0 0 0 0 0 0 0 0 0 0 0 0 0.25 0"/>
<feBlend mode="normal" in2="shape" result="effect1_innerShadow_1495_4490"/>
</filter>
<filter id="filter2_i_1495_4490" x="108.006" y="31.8098" width="56.3818" height="55.3584" filterUnits="userSpaceOnUse" color-interpolation-filters="sRGB">
<feFlood flood-opacity="0" result="BackgroundImageFix"/>
<feBlend mode="normal" in="SourceGraphic" in2="BackgroundImageFix" result="shape"/>
<feColorMatrix in="SourceAlpha" type="matrix" values="0 0 0 0 0 0 0 0 0 0 0 0 0 0 0 0 0 0 127 0" result="hardAlpha"/>
<feOffset dx="-7" dy="7"/>
<feComposite in2="hardAlpha" operator="arithmetic" k2="-1" k3="1"/>
<feColorMatrix type="matrix" values="0 0 0 0 0.85098 0 0 0 0 0.85098 0 0 0 0 0.85098 0 0 0 1 0"/>
<feBlend mode="normal" in2="shape" result="effect1_innerShadow_1495_4490"/>
</filter>
</defs>
</svg>
