<svg width="200" height="200" viewBox="0 0 200 200" fill="none" xmlns="http://www.w3.org/2000/svg">
<g filter="url(#filter0_ii_2283_6141)">
<path d="M33.5114 38.9458C33.2331 28.0913 42.0919 19.2114 52.9469 19.4639L76 20L100 19L138.5 20L147.019 19.7011C157.886 19.3198 166.855 28.1189 166.683 38.991L166 82L167 100V130.5V161.721C167 172.322 158.323 180.873 147.723 180.719L98.5 180L51.7519 180.714C41.3562 180.872 32.7636 172.646 32.4694 162.253L31.5 128L33 100L34 58L33.5114 38.9458Z" fill="#F4BA4E"/>
</g>
<path d="M75.907 23.9989L76.0368 24.0019L76.1665 23.9965L100.031 23.0022L138.396 23.9987L138.518 24.0018L138.64 23.9975L147.159 23.6986C155.738 23.3976 162.819 30.3443 162.683 38.9275L162.001 81.9365L161.998 82.0793L162.006 82.2219L163 100.111V130.5V161.721C163 170.091 156.15 176.841 147.781 176.719L98.5584 176L98.4987 176L98.4389 176L51.6908 176.714C43.4837 176.839 36.7 170.345 36.4678 162.14L35.503 128.05L36.9943 100.214L36.9975 100.155L36.9989 100.095L37.9989 58.0952L38.0012 57.9963L37.9987 57.8975L37.5101 38.8432C37.2904 30.2739 44.2841 23.2635 52.8539 23.4628L75.907 23.9989Z" stroke="black" stroke-width="8"/>
<mask id="path-3-inside-1_2283_6141" fill="white">
<path fill-rule="evenodd" clip-rule="evenodd" d="M137.287 42.0005C139.353 46.3843 143.316 47.8641 146.454 49.0359C148.483 49.7934 150.167 50.4223 150.771 51.6237L152 119L151.121 145.108C150.971 145.658 150.832 146.449 150.708 147.522C150.342 148.99 148.553 149.732 146.354 150.645C143.26 151.929 139.353 153.551 137.446 158.006C136.846 159.409 136.672 160.556 136.528 161.501C136.336 162.758 136.2 163.656 135.19 164.319L102.524 165L65.3966 164.3C65.2441 164.173 65.0019 164.038 64.6602 163.897C63.1314 163.266 62.9483 162.299 62.6752 160.857C62.4974 159.917 62.2815 158.777 61.6311 157.397C59.5655 153.013 55.6026 151.533 52.4644 150.361C50.8685 149.765 49.4858 149.249 48.6746 148.471L48 136L49.5146 100L50.5243 83L49.8768 52.8628C49.9249 52.5987 49.9725 52.3116 50.0196 52.0005C50.439 50.5463 52.253 49.8689 54.4838 49.0359C57.6219 47.8641 61.5849 46.3843 63.6505 42.0005C64.3008 40.6203 64.5168 39.4798 64.6946 38.5406C64.9497 37.1928 65.1264 36.2598 66.3958 35.6285L94.9515 35L134.707 35.7159C135.827 36.3449 136 37.2537 136.243 38.5406C136.421 39.4798 136.637 40.6203 137.287 42.0005Z"/>
</mask>
<path fill-rule="evenodd" clip-rule="evenodd" d="M137.287 42.0005C139.353 46.3843 143.316 47.8641 146.454 49.0359C148.483 49.7934 150.167 50.4223 150.771 51.6237L152 119L151.121 145.108C150.971 145.658 150.832 146.449 150.708 147.522C150.342 148.99 148.553 149.732 146.354 150.645C143.26 151.929 139.353 153.551 137.446 158.006C136.846 159.409 136.672 160.556 136.528 161.501C136.336 162.758 136.2 163.656 135.19 164.319L102.524 165L65.3966 164.3C65.2441 164.173 65.0019 164.038 64.6602 163.897C63.1314 163.266 62.9483 162.299 62.6752 160.857C62.4974 159.917 62.2815 158.777 61.6311 157.397C59.5655 153.013 55.6026 151.533 52.4644 150.361C50.8685 149.765 49.4858 149.249 48.6746 148.471L48 136L49.5146 100L50.5243 83L49.8768 52.8628C49.9249 52.5987 49.9725 52.3116 50.0196 52.0005C50.439 50.5463 52.253 49.8689 54.4838 49.0359C57.6219 47.8641 61.5849 46.3843 63.6505 42.0005C64.3008 40.6203 64.5168 39.4798 64.6946 38.5406C64.9497 37.1928 65.1264 36.2598 66.3958 35.6285L94.9515 35L134.707 35.7159C135.827 36.3449 136 37.2537 136.243 38.5406C136.421 39.4798 136.637 40.6203 137.287 42.0005Z" fill="#FAE45B"/>
<path d="M146.454 49.0359L144.705 53.72L146.454 49.0359ZM137.287 42.0005L132.764 44.1318V44.1318L137.287 42.0005ZM150.771 51.6237L155.77 51.5325L155.749 50.3947L155.238 49.378L150.771 51.6237ZM152 119L156.997 119.168L157.002 119.039L156.999 118.909L152 119ZM151.121 145.108L155.944 146.426L156.099 145.861L156.118 145.276L151.121 145.108ZM150.708 147.522L155.559 148.734L155.639 148.417L155.676 148.092L150.708 147.522ZM146.354 150.645L144.437 146.027H144.437L146.354 150.645ZM137.446 158.006L132.85 156.039L137.446 158.006ZM136.528 161.501L131.585 160.749L131.585 160.749L136.528 161.501ZM135.19 164.319L135.295 169.318L136.734 169.288L137.936 168.497L135.19 164.319ZM102.524 165L102.43 169.999L102.529 170.001L102.629 169.999L102.524 165ZM65.3966 164.3L62.2007 168.145L63.5492 169.266L65.3023 169.299L65.3966 164.3ZM64.6602 163.897L66.5676 159.275L66.5675 159.275L64.6602 163.897ZM62.6752 160.857L67.5879 159.927V159.927L62.6752 160.857ZM61.6311 157.397L66.1541 155.265L61.6311 157.397ZM52.4644 150.361L54.2135 145.677L54.2135 145.677L52.4644 150.361ZM48.6746 148.471L43.6819 148.741L43.7885 150.713L45.2136 152.08L48.6746 148.471ZM48 136L43.0044 135.79L42.9943 136.03L43.0073 136.27L48 136ZM49.5146 100L44.5234 99.7036L44.5208 99.7467L44.519 99.7898L49.5146 100ZM50.5243 83L55.5155 83.2965L55.5275 83.0947L55.5231 82.8926L50.5243 83ZM49.8768 52.8628L44.9575 51.9684L44.8671 52.4653L44.878 52.9702L49.8768 52.8628ZM50.0196 52.0005L45.2154 50.6147L45.1249 50.9286L45.076 51.2517L50.0196 52.0005ZM54.4838 49.0359L52.7347 44.3518L52.7347 44.3518L54.4838 49.0359ZM63.6505 42.0005L68.1735 44.1318V44.1318L63.6505 42.0005ZM64.6946 38.5406L69.6073 39.4707V39.4707L64.6946 38.5406ZM66.3958 35.6285L66.2858 30.6297L65.1694 30.6542L64.1695 31.1515L66.3958 35.6285ZM94.9515 35L95.0415 30.0008L94.9415 29.999L94.8414 30.0012L94.9515 35ZM134.707 35.7159L137.156 31.3563L136.057 30.7394L134.797 30.7167L134.707 35.7159ZM136.243 38.5406L141.156 37.6105V37.6105L136.243 38.5406ZM148.203 44.3518C144.921 43.1263 142.912 42.2072 141.81 39.8693L132.764 44.1318C135.794 50.5614 141.71 52.6019 144.705 53.72L148.203 44.3518ZM155.238 49.378C154.253 47.4183 152.607 46.3451 151.509 45.7565C150.4 45.1621 149.122 44.6949 148.203 44.3518L144.705 53.72C145.227 53.9151 145.642 54.0702 146.014 54.2218C146.384 54.3726 146.625 54.485 146.784 54.5701C146.946 54.657 146.933 54.6685 146.838 54.585C146.729 54.49 146.499 54.2592 146.303 53.8693L155.238 49.378ZM156.999 118.909L155.77 51.5325L145.771 51.7149L147.001 119.091L156.999 118.909ZM156.118 145.276L156.997 119.168L147.003 118.832L146.124 144.939L156.118 145.276ZM155.676 148.092C155.787 147.121 155.892 146.619 155.944 146.426L146.298 143.789C146.05 144.697 145.876 145.776 145.741 146.951L155.676 148.092ZM148.271 155.263C149.245 154.859 150.681 154.279 151.881 153.524C153.125 152.741 154.923 151.281 155.559 148.734L145.858 146.31C145.984 145.805 146.224 145.432 146.417 145.212C146.582 145.022 146.679 144.982 146.555 145.06C146.435 145.136 146.215 145.256 145.83 145.432C145.444 145.609 145.006 145.791 144.437 146.027L148.271 155.263ZM142.043 159.973C143.06 157.597 145.035 156.606 148.271 155.263L144.437 146.027C141.485 147.252 135.646 149.504 132.85 156.039L142.043 159.973ZM141.471 162.254C141.606 161.363 141.71 160.753 142.043 159.973L132.85 156.039C131.983 158.065 131.737 159.75 131.585 160.749L141.471 162.254ZM137.936 168.497C141.045 166.454 141.322 163.232 141.471 162.254L131.585 160.749C131.532 161.092 131.507 161.252 131.481 161.376C131.459 161.485 131.464 161.426 131.518 161.289C131.581 161.131 131.698 160.897 131.894 160.651C132.092 160.404 132.296 160.238 132.444 160.14L137.936 168.497ZM102.629 169.999L135.295 169.318L135.086 159.32L102.42 160.001L102.629 169.999ZM65.3023 169.299L102.43 169.999L102.619 160.001L65.4909 159.3L65.3023 169.299ZM62.7529 168.519C62.7969 168.537 62.7695 168.529 62.6936 168.487C62.6273 168.451 62.439 168.343 62.2007 168.145L68.5924 160.454C67.8702 159.854 67.0899 159.491 66.5676 159.275L62.7529 168.519ZM57.7625 161.787C57.8586 162.294 58.0841 163.739 58.7991 165.06C59.7026 166.73 61.1031 167.838 62.753 168.519L66.5675 159.275C66.5686 159.276 66.7493 159.351 66.9909 159.557C67.2508 159.779 67.4559 160.046 67.5945 160.302C67.7155 160.526 67.7432 160.664 67.7224 160.585C67.695 160.48 67.664 160.328 67.5879 159.927L57.7625 161.787ZM57.1081 159.528C57.4697 160.295 57.5947 160.901 57.7625 161.787L67.5879 159.927C67.4001 158.934 67.0933 157.259 66.1541 155.265L57.1081 159.528ZM50.7153 155.045C53.9972 156.271 56.0065 157.19 57.1081 159.528L66.1541 155.265C63.1245 148.836 57.2079 146.795 54.2135 145.677L50.7153 155.045ZM45.2136 152.08C46.2001 153.026 47.3222 153.625 48.166 154.018C49.0246 154.417 49.9658 154.766 50.7153 155.045L54.2135 145.677C53.3671 145.361 52.819 145.153 52.3845 144.951C51.9352 144.742 51.9603 144.694 52.1355 144.862L45.2136 152.08ZM43.0073 136.27L43.6819 148.741L53.6673 148.201L52.9927 135.73L43.0073 136.27ZM44.519 99.7898L43.0044 135.79L52.9956 136.21L54.5101 100.21L44.519 99.7898ZM45.5331 82.7035L44.5234 99.7036L54.5058 100.296L55.5155 83.2965L45.5331 82.7035ZM44.878 52.9702L45.5254 83.1074L55.5231 82.8926L54.8757 52.7554L44.878 52.9702ZM45.076 51.2517C45.0352 51.5206 44.9956 51.7587 44.9575 51.9684L54.7962 53.7572C54.8541 53.4386 54.9097 53.1025 54.9632 52.7493L45.076 51.2517ZM52.7347 44.3518C51.7462 44.7209 50.2906 45.2485 49.0636 45.9602C47.7922 46.6978 45.9431 48.0922 45.2154 50.6147L54.8237 53.3862C54.6794 53.8865 54.4256 54.2503 54.2251 54.4637C54.0529 54.6471 53.9551 54.6835 54.0813 54.6102C54.2047 54.5387 54.4286 54.4268 54.8197 54.2646C55.212 54.1019 55.656 53.9354 56.2329 53.72L52.7347 44.3518ZM59.1275 39.8693C58.0258 42.2072 56.0166 43.1263 52.7347 44.3518L56.2329 53.72C59.2273 52.6019 65.1439 50.5614 68.1735 44.1318L59.1275 39.8693ZM59.7818 37.6105C59.6141 38.4965 59.489 39.1019 59.1275 39.8693L68.1735 44.1318C69.1126 42.1387 69.4194 40.4631 69.6073 39.4707L59.7818 37.6105ZM64.1695 31.1515C62.5996 31.9322 61.4147 33.101 60.672 34.6216C60.0836 35.8265 59.8746 37.1205 59.7818 37.6105L69.6073 39.4707C69.6777 39.0989 69.7091 38.942 69.738 38.8274C69.762 38.7322 69.7458 38.8296 69.6577 39.0101C69.5563 39.2176 69.391 39.4727 69.1502 39.7115C68.9165 39.943 68.7098 40.0619 68.6222 40.1054L64.1695 31.1515ZM94.8414 30.0012L66.2858 30.6297L66.5059 40.6273L95.0615 39.9988L94.8414 30.0012ZM134.797 30.7167L95.0415 30.0008L94.8614 39.9992L134.617 40.7151L134.797 30.7167ZM141.156 37.6105C141.065 37.1326 140.868 35.9312 140.351 34.8016C139.704 33.3885 138.655 32.1981 137.156 31.3563L132.259 40.0755C132.129 40.0021 131.917 39.8576 131.698 39.6186C131.478 39.3777 131.337 39.137 131.257 38.9615C131.187 38.8087 131.177 38.7358 131.203 38.8391C131.232 38.9591 131.264 39.1178 131.33 39.4707L141.156 37.6105ZM141.81 39.8693C141.449 39.1019 141.324 38.4965 141.156 37.6105L131.33 39.4707C131.518 40.4631 131.825 42.1387 132.764 44.1318L141.81 39.8693Z" fill="black" mask="url(#path-3-inside-1_2283_6141)"/>
<mask id="mask0_2283_6141" style="mask-type:alpha" maskUnits="userSpaceOnUse" x="48" y="35" width="104" height="130">
<mask id="path-5-inside-2_2283_6141" fill="white">
<path fill-rule="evenodd" clip-rule="evenodd" d="M137.287 42.0005C139.353 46.3843 143.316 47.8641 146.454 49.0359C148.483 49.7934 150.167 50.4223 150.771 51.6237L152 119L151.121 145.108C150.971 145.658 150.832 146.449 150.708 147.522C150.342 148.99 148.553 149.732 146.354 150.645C143.26 151.929 139.353 153.551 137.446 158.006C136.846 159.409 136.672 160.556 136.528 161.501C136.336 162.758 136.2 163.656 135.19 164.319L102.524 165L65.3966 164.3C65.2441 164.173 65.0019 164.038 64.6602 163.897C63.1314 163.266 62.9483 162.299 62.6752 160.857C62.4974 159.917 62.2815 158.777 61.6311 157.397C59.5655 153.013 55.6026 151.533 52.4644 150.361C50.8685 149.765 49.4858 149.249 48.6746 148.471L48 136L49.5146 100L50.5243 83L49.8768 52.8628C49.9249 52.5987 49.9725 52.3116 50.0196 52.0005C50.439 50.5463 52.253 49.8689 54.4838 49.0359C57.6219 47.8641 61.5849 46.3843 63.6505 42.0005C64.3008 40.6203 64.5168 39.4798 64.6946 38.5406C64.9497 37.1928 65.1264 36.2598 66.3958 35.6285L94.9515 35L134.707 35.7159C135.827 36.3449 136 37.2537 136.243 38.5406C136.421 39.4798 136.637 40.6203 137.287 42.0005Z"/>
</mask>
<path fill-rule="evenodd" clip-rule="evenodd" d="M137.287 42.0005C139.353 46.3843 143.316 47.8641 146.454 49.0359C148.483 49.7934 150.167 50.4223 150.771 51.6237L152 119L151.121 145.108C150.971 145.658 150.832 146.449 150.708 147.522C150.342 148.99 148.553 149.732 146.354 150.645C143.26 151.929 139.353 153.551 137.446 158.006C136.846 159.409 136.672 160.556 136.528 161.501C136.336 162.758 136.2 163.656 135.19 164.319L102.524 165L65.3966 164.3C65.2441 164.173 65.0019 164.038 64.6602 163.897C63.1314 163.266 62.9483 162.299 62.6752 160.857C62.4974 159.917 62.2815 158.777 61.6311 157.397C59.5655 153.013 55.6026 151.533 52.4644 150.361C50.8685 149.765 49.4858 149.249 48.6746 148.471L48 136L49.5146 100L50.5243 83L49.8768 52.8628C49.9249 52.5987 49.9725 52.3116 50.0196 52.0005C50.439 50.5463 52.253 49.8689 54.4838 49.0359C57.6219 47.8641 61.5849 46.3843 63.6505 42.0005C64.3008 40.6203 64.5168 39.4798 64.6946 38.5406C64.9497 37.1928 65.1264 36.2598 66.3958 35.6285L94.9515 35L134.707 35.7159C135.827 36.3449 136 37.2537 136.243 38.5406C136.421 39.4798 136.637 40.6203 137.287 42.0005Z" fill="#FAE45B"/>
<path d="M146.454 49.0359L144.705 53.72L146.454 49.0359ZM137.287 42.0005L132.764 44.1318V44.1318L137.287 42.0005ZM150.771 51.6237L155.77 51.5325L155.749 50.3947L155.238 49.378L150.771 51.6237ZM152 119L156.997 119.168L157.002 119.039L156.999 118.909L152 119ZM151.121 145.108L155.944 146.426L156.099 145.861L156.118 145.276L151.121 145.108ZM150.708 147.522L155.559 148.734L155.639 148.417L155.676 148.092L150.708 147.522ZM146.354 150.645L144.437 146.027H144.437L146.354 150.645ZM137.446 158.006L132.85 156.039L137.446 158.006ZM136.528 161.501L131.585 160.749L131.585 160.749L136.528 161.501ZM135.19 164.319L135.295 169.318L136.734 169.288L137.936 168.497L135.19 164.319ZM102.524 165L102.43 169.999L102.529 170.001L102.629 169.999L102.524 165ZM65.3966 164.3L62.2007 168.145L63.5492 169.266L65.3023 169.299L65.3966 164.3ZM64.6602 163.897L66.5676 159.275L66.5675 159.275L64.6602 163.897ZM62.6752 160.857L67.5879 159.927V159.927L62.6752 160.857ZM61.6311 157.397L66.1541 155.265L61.6311 157.397ZM52.4644 150.361L54.2135 145.677L54.2135 145.677L52.4644 150.361ZM48.6746 148.471L43.6819 148.741L43.7885 150.713L45.2136 152.08L48.6746 148.471ZM48 136L43.0044 135.79L42.9943 136.03L43.0073 136.27L48 136ZM49.5146 100L44.5234 99.7036L44.5208 99.7467L44.519 99.7898L49.5146 100ZM50.5243 83L55.5155 83.2965L55.5275 83.0947L55.5231 82.8926L50.5243 83ZM49.8768 52.8628L44.9575 51.9684L44.8671 52.4653L44.878 52.9702L49.8768 52.8628ZM50.0196 52.0005L45.2154 50.6147L45.1249 50.9286L45.076 51.2517L50.0196 52.0005ZM54.4838 49.0359L52.7347 44.3518L52.7347 44.3518L54.4838 49.0359ZM63.6505 42.0005L68.1735 44.1318V44.1318L63.6505 42.0005ZM64.6946 38.5406L69.6073 39.4707V39.4707L64.6946 38.5406ZM66.3958 35.6285L66.2858 30.6297L65.1694 30.6542L64.1695 31.1515L66.3958 35.6285ZM94.9515 35L95.0415 30.0008L94.9415 29.999L94.8414 30.0012L94.9515 35ZM134.707 35.7159L137.156 31.3563L136.057 30.7394L134.797 30.7167L134.707 35.7159ZM136.243 38.5406L141.156 37.6105V37.6105L136.243 38.5406ZM148.203 44.3518C144.921 43.1263 142.912 42.2072 141.81 39.8693L132.764 44.1318C135.794 50.5614 141.71 52.6019 144.705 53.72L148.203 44.3518ZM155.238 49.378C154.253 47.4183 152.607 46.3451 151.509 45.7565C150.4 45.1621 149.122 44.6949 148.203 44.3518L144.705 53.72C145.227 53.9151 145.642 54.0702 146.014 54.2218C146.384 54.3726 146.625 54.485 146.784 54.5701C146.946 54.657 146.933 54.6685 146.838 54.585C146.729 54.49 146.499 54.2592 146.303 53.8693L155.238 49.378ZM156.999 118.909L155.77 51.5325L145.771 51.7149L147.001 119.091L156.999 118.909ZM156.118 145.276L156.997 119.168L147.003 118.832L146.124 144.939L156.118 145.276ZM155.676 148.092C155.787 147.121 155.892 146.619 155.944 146.426L146.298 143.789C146.05 144.697 145.876 145.776 145.741 146.951L155.676 148.092ZM148.271 155.263C149.245 154.859 150.681 154.279 151.881 153.524C153.125 152.741 154.923 151.281 155.559 148.734L145.858 146.31C145.984 145.805 146.224 145.432 146.417 145.212C146.582 145.022 146.679 144.982 146.555 145.06C146.435 145.136 146.215 145.256 145.83 145.432C145.444 145.609 145.006 145.791 144.437 146.027L148.271 155.263ZM142.043 159.973C143.06 157.597 145.035 156.606 148.271 155.263L144.437 146.027C141.485 147.252 135.646 149.504 132.85 156.039L142.043 159.973ZM141.471 162.254C141.606 161.363 141.71 160.753 142.043 159.973L132.85 156.039C131.983 158.065 131.737 159.75 131.585 160.749L141.471 162.254ZM137.936 168.497C141.045 166.454 141.322 163.232 141.471 162.254L131.585 160.749C131.532 161.092 131.507 161.252 131.481 161.376C131.459 161.485 131.464 161.426 131.518 161.289C131.581 161.131 131.698 160.897 131.894 160.651C132.092 160.404 132.296 160.238 132.444 160.14L137.936 168.497ZM102.629 169.999L135.295 169.318L135.086 159.32L102.42 160.001L102.629 169.999ZM65.3023 169.299L102.43 169.999L102.619 160.001L65.4909 159.3L65.3023 169.299ZM62.7529 168.519C62.7969 168.537 62.7695 168.529 62.6936 168.487C62.6273 168.451 62.439 168.343 62.2007 168.145L68.5924 160.454C67.8702 159.854 67.0899 159.491 66.5676 159.275L62.7529 168.519ZM57.7625 161.787C57.8586 162.294 58.0841 163.739 58.7991 165.06C59.7026 166.73 61.1031 167.838 62.753 168.519L66.5675 159.275C66.5686 159.276 66.7493 159.351 66.9909 159.557C67.2508 159.779 67.4559 160.046 67.5945 160.302C67.7155 160.526 67.7432 160.664 67.7224 160.585C67.695 160.48 67.664 160.328 67.5879 159.927L57.7625 161.787ZM57.1081 159.528C57.4697 160.295 57.5947 160.901 57.7625 161.787L67.5879 159.927C67.4001 158.934 67.0933 157.259 66.1541 155.265L57.1081 159.528ZM50.7153 155.045C53.9972 156.271 56.0065 157.19 57.1081 159.528L66.1541 155.265C63.1245 148.836 57.2079 146.795 54.2135 145.677L50.7153 155.045ZM45.2136 152.08C46.2001 153.026 47.3222 153.625 48.166 154.018C49.0246 154.417 49.9658 154.766 50.7153 155.045L54.2135 145.677C53.3671 145.361 52.819 145.153 52.3845 144.951C51.9352 144.742 51.9603 144.694 52.1355 144.862L45.2136 152.08ZM43.0073 136.27L43.6819 148.741L53.6673 148.201L52.9927 135.73L43.0073 136.27ZM44.519 99.7898L43.0044 135.79L52.9956 136.21L54.5101 100.21L44.519 99.7898ZM45.5331 82.7035L44.5234 99.7036L54.5058 100.296L55.5155 83.2965L45.5331 82.7035ZM44.878 52.9702L45.5254 83.1074L55.5231 82.8926L54.8757 52.7554L44.878 52.9702ZM45.076 51.2517C45.0352 51.5206 44.9956 51.7587 44.9575 51.9684L54.7962 53.7572C54.8541 53.4386 54.9097 53.1025 54.9632 52.7493L45.076 51.2517ZM52.7347 44.3518C51.7462 44.7209 50.2906 45.2485 49.0636 45.9602C47.7922 46.6978 45.9431 48.0922 45.2154 50.6147L54.8237 53.3862C54.6794 53.8865 54.4256 54.2503 54.2251 54.4637C54.0529 54.6471 53.9551 54.6835 54.0813 54.6102C54.2047 54.5387 54.4286 54.4268 54.8197 54.2646C55.212 54.1019 55.656 53.9354 56.2329 53.72L52.7347 44.3518ZM59.1275 39.8693C58.0258 42.2072 56.0166 43.1263 52.7347 44.3518L56.2329 53.72C59.2273 52.6019 65.1439 50.5614 68.1735 44.1318L59.1275 39.8693ZM59.7818 37.6105C59.6141 38.4965 59.489 39.1019 59.1275 39.8693L68.1735 44.1318C69.1126 42.1387 69.4194 40.4631 69.6073 39.4707L59.7818 37.6105ZM64.1695 31.1515C62.5996 31.9322 61.4147 33.101 60.672 34.6216C60.0836 35.8265 59.8746 37.1205 59.7818 37.6105L69.6073 39.4707C69.6777 39.0989 69.7091 38.942 69.738 38.8274C69.762 38.7322 69.7458 38.8296 69.6577 39.0101C69.5563 39.2176 69.391 39.4727 69.1502 39.7115C68.9165 39.943 68.7098 40.0619 68.6222 40.1054L64.1695 31.1515ZM94.8414 30.0012L66.2858 30.6297L66.5059 40.6273L95.0615 39.9988L94.8414 30.0012ZM134.797 30.7167L95.0415 30.0008L94.8614 39.9992L134.617 40.7151L134.797 30.7167ZM141.156 37.6105C141.065 37.1326 140.868 35.9312 140.351 34.8016C139.704 33.3885 138.655 32.1981 137.156 31.3563L132.259 40.0755C132.129 40.0021 131.917 39.8576 131.698 39.6186C131.478 39.3777 131.337 39.137 131.257 38.9615C131.187 38.8087 131.177 38.7358 131.203 38.8391C131.232 38.9591 131.264 39.1178 131.33 39.4707L141.156 37.6105ZM141.81 39.8693C141.449 39.1019 141.324 38.4965 141.156 37.6105L131.33 39.4707C131.518 40.4631 131.825 42.1387 132.764 44.1318L141.81 39.8693Z" fill="black" mask="url(#path-5-inside-2_2283_6141)"/>
</mask>
<g mask="url(#mask0_2283_6141)">
<path fill-rule="evenodd" clip-rule="evenodd" d="M79.1483 -34.3197C93.2957 -36.5603 107.708 -36.5601 121.855 -34.3192L100.5 100.5L79.1483 -34.3197ZM100.5 100.5L121.852 235.32C107.704 237.56 93.2924 237.56 79.1451 235.319L100.5 100.5ZM100.5 100.5L180.731 -9.93181C192.32 -1.51269 202.51 8.67792 210.93 20.2659L100.5 100.5ZM100.5 100.5L235.32 79.1483C237.56 93.2957 237.56 107.708 235.319 121.855L100.5 100.5ZM100.5 100.5L210.93 180.734C202.51 192.322 192.32 202.513 180.731 210.932L100.5 100.5ZM100.5 100.5L20.2687 210.932C8.68043 202.513 -1.51044 192.322 -9.92984 180.734L100.5 100.5ZM100.5 100.5L-34.3192 121.855C-36.5601 107.708 -36.5603 93.2957 -34.3197 79.1484L100.5 100.5ZM100.5 100.5L-9.92984 20.2659C-1.51044 8.67792 8.68043 -1.51269 20.2687 -9.93181L100.5 100.5Z" fill="url(#paint0_radial_2283_6141)"/>
<path d="M82.9928 40.4962L85.3261 43.9962C86.1607 45.248 87.5658 46 89.0704 46H109.987C111.42 46 112.768 45.3171 113.615 44.1611L116.182 40.6611C118.362 37.6888 116.239 33.5 112.553 33.5H86.737C83.1429 33.5 80.9991 37.5057 82.9928 40.4962Z" fill="#D2504A" stroke="black" stroke-width="5" stroke-linecap="round"/>
<path d="M82.9928 159.004L85.3261 155.504C86.1607 154.252 87.5658 153.5 89.0704 153.5H109.987C111.42 153.5 112.768 154.183 113.615 155.339L116.182 158.839C118.362 161.811 116.239 166 112.553 166H86.737C83.1429 166 80.9991 161.994 82.9928 159.004Z" fill="#D2504A" stroke="black" stroke-width="5" stroke-linecap="round"/>
<mask id="path-10-inside-3_2283_6141" fill="white">
<path fill-rule="evenodd" clip-rule="evenodd" d="M137.287 42.0005C139.353 46.3843 143.316 47.8641 146.454 49.0359C148.483 49.7934 150.167 50.4223 150.771 51.6237L152 119L151.121 145.108C150.971 145.658 150.832 146.449 150.708 147.522C150.342 148.99 148.553 149.732 146.354 150.645C143.26 151.929 139.353 153.551 137.446 158.006C136.846 159.409 136.672 160.556 136.528 161.501C136.336 162.758 136.2 163.656 135.19 164.319L102.524 165L65.3966 164.3C65.2441 164.173 65.002 164.038 64.6602 163.897C63.1314 163.266 62.9483 162.299 62.6752 160.857C62.4974 159.917 62.2815 158.777 61.6311 157.397C59.5655 153.013 55.6026 151.533 52.4644 150.361C50.8685 149.765 49.4858 149.249 48.6746 148.471L48 136L49.5146 100L50.5243 83L49.8768 52.8628C49.9249 52.5987 49.9725 52.3116 50.0196 52.0005C50.439 50.5463 52.253 49.8689 54.4838 49.0359C57.6219 47.8641 61.5849 46.3843 63.6505 42.0005C64.3008 40.6203 64.5168 39.4798 64.6946 38.5406C64.9497 37.1928 65.1264 36.2598 66.3958 35.6285L94.9515 35L134.707 35.7159C135.827 36.3449 136 37.2537 136.243 38.5406C136.421 39.4798 136.637 40.6203 137.287 42.0005Z"/>
</mask>
<path d="M146.454 49.0359L144.705 53.72L146.454 49.0359ZM137.287 42.0005L132.764 44.1318V44.1318L137.287 42.0005ZM150.771 51.6237L155.77 51.5325L155.749 50.3947L155.238 49.378L150.771 51.6237ZM152 119L156.997 119.168L157.002 119.039L156.999 118.909L152 119ZM151.121 145.108L155.944 146.426L156.099 145.861L156.118 145.276L151.121 145.108ZM150.708 147.522L155.559 148.734L155.639 148.417L155.676 148.092L150.708 147.522ZM146.354 150.645L144.437 146.027H144.437L146.354 150.645ZM137.446 158.006L132.85 156.039L137.446 158.006ZM136.528 161.501L131.585 160.749L131.585 160.749L136.528 161.501ZM135.19 164.319L135.295 169.318L136.734 169.288L137.936 168.497L135.19 164.319ZM102.524 165L102.43 169.999L102.529 170.001L102.629 169.999L102.524 165ZM65.3966 164.3L62.2005 168.145L63.5491 169.266L65.3023 169.299L65.3966 164.3ZM64.6602 163.897L62.753 168.519L62.753 168.519L64.6602 163.897ZM62.6752 160.857L67.5879 159.926V159.926L62.6752 160.857ZM61.6311 157.397L57.1081 159.528H57.1081L61.6311 157.397ZM52.4644 150.361L54.2135 145.677L54.2135 145.677L52.4644 150.361ZM48.6746 148.471L43.6819 148.741L43.7885 150.713L45.2136 152.08L48.6746 148.471ZM48 136L43.0044 135.79L42.9943 136.03L43.0073 136.27L48 136ZM49.5146 100L44.5234 99.7036L44.5208 99.7467L44.519 99.7898L49.5146 100ZM50.5243 83L55.5155 83.2965L55.5275 83.0947L55.5231 82.8926L50.5243 83ZM49.8768 52.8628L44.9575 51.9684L44.8671 52.4653L44.878 52.9702L49.8768 52.8628ZM50.0196 52.0005L45.2154 50.6147L45.1249 50.9286L45.076 51.2517L50.0196 52.0005ZM54.4838 49.0359L52.7347 44.3518L52.7347 44.3518L54.4838 49.0359ZM63.6505 42.0005L68.1735 44.1318V44.1318L63.6505 42.0005ZM64.6946 38.5406L69.6073 39.4707V39.4707L64.6946 38.5406ZM66.3958 35.6285L66.2858 30.6297L65.1694 30.6542L64.1695 31.1515L66.3958 35.6285ZM94.9515 35L95.0415 30.0008L94.9415 29.999L94.8414 30.0012L94.9515 35ZM134.707 35.7159L137.156 31.3563L136.057 30.7394L134.797 30.7167L134.707 35.7159ZM136.243 38.5406L141.156 37.6105V37.6105L136.243 38.5406ZM148.203 44.3518C144.921 43.1263 142.912 42.2072 141.81 39.8693L132.764 44.1318C135.794 50.5614 141.71 52.6019 144.705 53.72L148.203 44.3518ZM155.238 49.378C154.253 47.4183 152.607 46.3451 151.509 45.7565C150.4 45.1621 149.122 44.6949 148.203 44.3518L144.705 53.72C145.227 53.9151 145.642 54.0702 146.014 54.2218C146.384 54.3726 146.625 54.485 146.784 54.5701C146.946 54.657 146.933 54.6685 146.838 54.585C146.729 54.49 146.499 54.2592 146.303 53.8693L155.238 49.378ZM156.999 118.909L155.77 51.5325L145.771 51.7149L147.001 119.091L156.999 118.909ZM156.118 145.276L156.997 119.168L147.003 118.832L146.124 144.939L156.118 145.276ZM155.676 148.092C155.787 147.121 155.892 146.619 155.944 146.426L146.298 143.789C146.05 144.697 145.876 145.776 145.741 146.951L155.676 148.092ZM148.271 155.263C149.245 154.859 150.681 154.279 151.881 153.524C153.125 152.741 154.923 151.281 155.559 148.734L145.858 146.31C145.984 145.805 146.224 145.432 146.417 145.212C146.582 145.022 146.679 144.982 146.555 145.06C146.435 145.136 146.215 145.256 145.83 145.432C145.444 145.609 145.006 145.791 144.437 146.027L148.271 155.263ZM142.043 159.973C143.06 157.597 145.035 156.606 148.271 155.263L144.437 146.027C141.485 147.252 135.646 149.504 132.85 156.039L142.043 159.973ZM141.471 162.254C141.606 161.363 141.71 160.753 142.043 159.973L132.85 156.039C131.983 158.065 131.737 159.75 131.585 160.749L141.471 162.254ZM137.936 168.497C141.045 166.454 141.322 163.232 141.471 162.254L131.585 160.749C131.532 161.092 131.507 161.252 131.481 161.376C131.459 161.485 131.464 161.426 131.518 161.289C131.581 161.131 131.698 160.897 131.894 160.651C132.092 160.404 132.296 160.238 132.444 160.14L137.936 168.497ZM102.629 169.999L135.295 169.318L135.086 159.32L102.42 160.001L102.629 169.999ZM65.3023 169.299L102.43 169.999L102.619 160.001L65.491 159.3L65.3023 169.299ZM62.753 168.519C62.7969 168.537 62.7695 168.529 62.6936 168.487C62.6272 168.45 62.4388 168.343 62.2005 168.145L68.5928 160.455C67.8705 159.854 67.0901 159.491 66.5675 159.275L62.753 168.519ZM57.7625 161.787C57.8586 162.294 58.0841 163.739 58.7991 165.06C59.7026 166.73 61.1031 167.838 62.753 168.519L66.5675 159.275C66.5686 159.276 66.7493 159.35 66.9909 159.557C67.2508 159.779 67.4559 160.046 67.5945 160.302C67.7155 160.526 67.7432 160.664 67.7224 160.585C67.695 160.48 67.664 160.328 67.5879 159.926L57.7625 161.787ZM57.1081 159.528C57.4697 160.295 57.5947 160.901 57.7625 161.787L67.5879 159.926C67.4 158.934 67.0933 157.258 66.1541 155.265L57.1081 159.528ZM50.7153 155.045C53.9972 156.271 56.0065 157.19 57.1081 159.528L66.1541 155.265C63.1245 148.836 57.2079 146.795 54.2135 145.677L50.7153 155.045ZM45.2136 152.08C46.2001 153.026 47.3222 153.625 48.166 154.018C49.0246 154.417 49.9658 154.765 50.7153 155.045L54.2135 145.677C53.3671 145.361 52.819 145.153 52.3845 144.951C51.9352 144.742 51.9603 144.694 52.1355 144.862L45.2136 152.08ZM43.0073 136.27L43.6819 148.741L53.6673 148.201L52.9927 135.73L43.0073 136.27ZM44.519 99.7898L43.0044 135.79L52.9956 136.21L54.5101 100.21L44.519 99.7898ZM45.5331 82.7035L44.5234 99.7036L54.5058 100.296L55.5155 83.2965L45.5331 82.7035ZM44.878 52.9702L45.5254 83.1074L55.5231 82.8926L54.8757 52.7554L44.878 52.9702ZM45.076 51.2517C45.0352 51.5206 44.9956 51.7587 44.9575 51.9684L54.7962 53.7572C54.8541 53.4386 54.9097 53.1025 54.9632 52.7493L45.076 51.2517ZM52.7347 44.3518C51.7462 44.7209 50.2906 45.2485 49.0636 45.9602C47.7922 46.6978 45.9431 48.0922 45.2154 50.6147L54.8237 53.3862C54.6794 53.8865 54.4256 54.2503 54.2251 54.4637C54.0529 54.6471 53.9551 54.6835 54.0813 54.6102C54.2047 54.5387 54.4286 54.4268 54.8197 54.2646C55.212 54.1019 55.656 53.9354 56.2329 53.72L52.7347 44.3518ZM59.1275 39.8693C58.0258 42.2072 56.0166 43.1263 52.7347 44.3518L56.2329 53.72C59.2273 52.6019 65.1439 50.5614 68.1735 44.1318L59.1275 39.8693ZM59.7818 37.6105C59.6141 38.4965 59.489 39.1019 59.1275 39.8693L68.1735 44.1318C69.1126 42.1387 69.4194 40.4631 69.6073 39.4707L59.7818 37.6105ZM64.1695 31.1515C62.5996 31.9322 61.4147 33.101 60.672 34.6216C60.0836 35.8265 59.8746 37.1205 59.7818 37.6105L69.6073 39.4707C69.6777 39.0989 69.7091 38.942 69.738 38.8274C69.762 38.7322 69.7458 38.8296 69.6577 39.0101C69.5563 39.2176 69.391 39.4727 69.1502 39.7115C68.9165 39.943 68.7098 40.0619 68.6222 40.1054L64.1695 31.1515ZM94.8414 30.0012L66.2858 30.6297L66.5059 40.6273L95.0615 39.9988L94.8414 30.0012ZM134.797 30.7167L95.0415 30.0008L94.8614 39.9992L134.617 40.7151L134.797 30.7167ZM141.156 37.6105C141.065 37.1326 140.868 35.9312 140.351 34.8016C139.704 33.3885 138.655 32.1981 137.156 31.3563L132.259 40.0755C132.129 40.0021 131.917 39.8576 131.698 39.6186C131.478 39.3777 131.337 39.137 131.257 38.9615C131.187 38.8087 131.177 38.7358 131.203 38.8391C131.232 38.9591 131.264 39.1178 131.33 39.4707L141.156 37.6105ZM141.81 39.8693C141.449 39.1019 141.324 38.4965 141.156 37.6105L131.33 39.4707C131.518 40.4631 131.825 42.1387 132.764 44.1318L141.81 39.8693Z" fill="black" mask="url(#path-10-inside-3_2283_6141)"/>
</g>
<path d="M124.284 130.054C128.809 131.07 132.483 126.375 130.409 122.228L104.919 71.2485C102.892 67.1948 97.1075 67.1948 95.0806 71.2485L69.5927 122.224C67.5184 126.373 71.1949 131.068 75.7199 130.05L96.0102 125.482C97.8742 125.063 99.3477 123.721 99.9746 121.988C100.601 123.722 102.076 125.065 103.942 125.484L124.284 130.054Z" fill="#F4BA4E" stroke="black" stroke-width="5"/>
<path d="M116.621 97.5002C116.519 97.4478 116.424 97.5022 116.329 97.507C115.969 97.5254 115.585 97.4063 115.209 97.3119" stroke="black" stroke-width="6" stroke-linecap="round"/>
<path d="M89.2034 92.7683C89.0976 92.6171 88.9066 92.5376 88.762 92.4301C88.2078 92.0182 87.7416 91.4969 87.2654 91" stroke="black" stroke-width="6" stroke-linecap="round"/>
<path d="M119.36 104.514C117.897 104.72 116.445 104.798 114.969 104.879" stroke="black" stroke-width="6" stroke-linecap="round"/>
<g filter="url(#filter1_i_2283_6141)">
<circle cx="51.5" cy="38.5" r="5.5" fill="#D2504A"/>
</g>
<circle cx="51.5" cy="38.5" r="7" stroke="black" stroke-width="3"/>
<circle cx="49.5" cy="36.5" r="1.5" fill="#EE7C78"/>
<g filter="url(#filter2_i_2283_6141)">
<circle cx="51.5" cy="161.5" r="5.5" fill="#D2504A"/>
</g>
<circle cx="51.5" cy="161.5" r="7" stroke="black" stroke-width="3"/>
<circle cx="49.5" cy="159.5" r="1.5" fill="#EE7C78"/>
<g filter="url(#filter3_i_2283_6141)">
<circle cx="147.5" cy="38.5" r="5.5" fill="#D2504A"/>
</g>
<circle cx="147.5" cy="38.5" r="7" stroke="black" stroke-width="3"/>
<circle cx="145.5" cy="36.5" r="1.5" fill="#EE7C78"/>
<g filter="url(#filter4_i_2283_6141)">
<circle cx="147.5" cy="161.5" r="5.5" fill="#D2504A"/>
</g>
<circle cx="147.5" cy="161.5" r="7" stroke="black" stroke-width="3"/>
<circle cx="145.5" cy="159.5" r="1.5" fill="#EE7C78"/>
<path d="M37.0001 131.069C39.1726 130.529 40.9341 129.574 42.7287 128.609" stroke="black" stroke-width="6" stroke-linecap="round"/>
<path d="M37.742 139.22C39.4041 139.206 40.9026 138.844 42.4268 138.481" stroke="black" stroke-width="6" stroke-linecap="round"/>
<path d="M131.32 30.744C130.699 28.5067 130.604 26.2709 130.501 23.9999" stroke="black" stroke-width="6" stroke-linecap="round"/>
<defs>
<filter id="filter0_ii_2283_6141" x="31.5" y="19" width="135.5" height="161.721" filterUnits="userSpaceOnUse" color-interpolation-filters="sRGB">
<feFlood flood-opacity="0" result="BackgroundImageFix"/>
<feBlend mode="normal" in="SourceGraphic" in2="BackgroundImageFix" result="shape"/>
<feColorMatrix in="SourceAlpha" type="matrix" values="0 0 0 0 0 0 0 0 0 0 0 0 0 0 0 0 0 0 127 0" result="hardAlpha"/>
<feOffset dx="-7" dy="11"/>
<feComposite in2="hardAlpha" operator="arithmetic" k2="-1" k3="1"/>
<feColorMatrix type="matrix" values="0 0 0 0 1 0 0 0 0 0.968627 0 0 0 0 0.913725 0 0 0 1 0"/>
<feBlend mode="normal" in2="shape" result="effect1_innerShadow_2283_6141"/>
<feColorMatrix in="SourceAlpha" type="matrix" values="0 0 0 0 0 0 0 0 0 0 0 0 0 0 0 0 0 0 127 0" result="hardAlpha"/>
<feOffset dx="6" dy="-12"/>
<feComposite in2="hardAlpha" operator="arithmetic" k2="-1" k3="1"/>
<feColorMatrix type="matrix" values="0 0 0 0 1 0 0 0 0 0.968627 0 0 0 0 0.913725 0 0 0 1 0"/>
<feBlend mode="normal" in2="effect1_innerShadow_2283_6141" result="effect2_innerShadow_2283_6141"/>
</filter>
<filter id="filter1_i_2283_6141" x="43" y="30" width="17" height="17" filterUnits="userSpaceOnUse" color-interpolation-filters="sRGB">
<feFlood flood-opacity="0" result="BackgroundImageFix"/>
<feBlend mode="normal" in="SourceGraphic" in2="BackgroundImageFix" result="shape"/>
<feColorMatrix in="SourceAlpha" type="matrix" values="0 0 0 0 0 0 0 0 0 0 0 0 0 0 0 0 0 0 127 0" result="hardAlpha"/>
<feOffset dx="-5" dy="-5"/>
<feComposite in2="hardAlpha" operator="arithmetic" k2="-1" k3="1"/>
<feColorMatrix type="matrix" values="0 0 0 0 0.933333 0 0 0 0 0.486275 0 0 0 0 0.470588 0 0 0 1 0"/>
<feBlend mode="normal" in2="shape" result="effect1_innerShadow_2283_6141"/>
</filter>
<filter id="filter2_i_2283_6141" x="43" y="153" width="17" height="17" filterUnits="userSpaceOnUse" color-interpolation-filters="sRGB">
<feFlood flood-opacity="0" result="BackgroundImageFix"/>
<feBlend mode="normal" in="SourceGraphic" in2="BackgroundImageFix" result="shape"/>
<feColorMatrix in="SourceAlpha" type="matrix" values="0 0 0 0 0 0 0 0 0 0 0 0 0 0 0 0 0 0 127 0" result="hardAlpha"/>
<feOffset dx="-5" dy="-5"/>
<feComposite in2="hardAlpha" operator="arithmetic" k2="-1" k3="1"/>
<feColorMatrix type="matrix" values="0 0 0 0 0.933333 0 0 0 0 0.486275 0 0 0 0 0.470588 0 0 0 1 0"/>
<feBlend mode="normal" in2="shape" result="effect1_innerShadow_2283_6141"/>
</filter>
<filter id="filter3_i_2283_6141" x="139" y="30" width="17" height="17" filterUnits="userSpaceOnUse" color-interpolation-filters="sRGB">
<feFlood flood-opacity="0" result="BackgroundImageFix"/>
<feBlend mode="normal" in="SourceGraphic" in2="BackgroundImageFix" result="shape"/>
<feColorMatrix in="SourceAlpha" type="matrix" values="0 0 0 0 0 0 0 0 0 0 0 0 0 0 0 0 0 0 127 0" result="hardAlpha"/>
<feOffset dx="-5" dy="-5"/>
<feComposite in2="hardAlpha" operator="arithmetic" k2="-1" k3="1"/>
<feColorMatrix type="matrix" values="0 0 0 0 0.933333 0 0 0 0 0.486275 0 0 0 0 0.470588 0 0 0 1 0"/>
<feBlend mode="normal" in2="shape" result="effect1_innerShadow_2283_6141"/>
</filter>
<filter id="filter4_i_2283_6141" x="139" y="153" width="17" height="17" filterUnits="userSpaceOnUse" color-interpolation-filters="sRGB">
<feFlood flood-opacity="0" result="BackgroundImageFix"/>
<feBlend mode="normal" in="SourceGraphic" in2="BackgroundImageFix" result="shape"/>
<feColorMatrix in="SourceAlpha" type="matrix" values="0 0 0 0 0 0 0 0 0 0 0 0 0 0 0 0 0 0 127 0" result="hardAlpha"/>
<feOffset dx="-5" dy="-5"/>
<feComposite in2="hardAlpha" operator="arithmetic" k2="-1" k3="1"/>
<feColorMatrix type="matrix" values="0 0 0 0 0.933333 0 0 0 0 0.486275 0 0 0 0 0.470588 0 0 0 1 0"/>
<feBlend mode="normal" in2="shape" result="effect1_innerShadow_2283_6141"/>
</filter>
<radialGradient id="paint0_radial_2283_6141" cx="0" cy="0" r="1" gradientUnits="userSpaceOnUse" gradientTransform="translate(100.136 100.136) rotate(-90) scale(82.136 82.136)">
<stop stop-color="white" stop-opacity="0.8"/>
<stop offset="1" stop-color="white" stop-opacity="0"/>
</radialGradient>
</defs>
</svg>
